<svg width="18" height="17" viewBox="0 0 18 17" fill="none" xmlns="http://www.w3.org/2000/svg">
<path d="M17.4447 5.61259L15.1396 3.2892L16.7447 1.67136C17.0184 1.39548 17.0184 0.949573 16.7447 0.673701C16.471 0.397829 16.0286 0.397829 15.7549 0.673701L8.48047 8.00583C8.66387 8.14977 8.84237 8.30217 9.00967 8.47009C9.17697 8.63872 9.32747 8.81863 9.47027 9.00349L12.0498 6.40352L14.3549 8.72691C14.4914 8.8645 14.6706 8.93364 14.8498 8.93364C15.029 8.93364 15.2082 8.8645 15.3447 8.72691L17.4447 6.61025C17.7184 6.33437 17.7184 5.88846 17.4447 5.61259Z" fill="white"/>
<path d="M5.04961 16.6942C6.17171 16.6942 7.2259 16.2539 8.0197 15.4545C8.8135 14.6551 9.2496 13.5919 9.2496 12.4609C9.2496 11.3299 8.8128 10.2673 8.0197 9.4672C7.2266 8.6671 6.17171 8.22754 5.04961 8.22754C3.92751 8.22754 2.87331 8.66781 2.07951 9.4672C1.28571 10.2666 0.849609 11.3299 0.849609 12.4609C0.849609 13.5919 1.28641 14.6544 2.07951 15.4545C2.87261 16.2546 3.92751 16.6942 5.04961 16.6942Z" fill="white"/>
</svg>
