<svg width="27" height="24" viewBox="0 0 27 24" fill="none" xmlns="http://www.w3.org/2000/svg">
<rect x="21.2451" y="11.1309" width="1.6081" height="4.36562" fill="#ADB5BD"/>
<path fill-rule="evenodd" clip-rule="evenodd" d="M14.2017 14.5721C13.8849 14.7031 13.5496 14.7686 13.2039 14.7686C12.8581 14.7686 12.5228 14.7031 12.2068 14.5728L6.77148 12.3369V16.2238C6.77148 18.1345 10.007 19.1342 13.2039 19.1342C16.4008 19.1342 19.6362 18.1345 19.6362 16.2238V12.3376L14.2017 14.5721Z" fill="#ADB5BD"/>
<path fill-rule="evenodd" clip-rule="evenodd" d="M22.3816 8.28597L13.5371 4.64795C13.3256 4.56136 13.0836 4.56136 12.8722 4.64795L4.02764 8.28597C3.73979 8.40384 3.55566 8.66214 3.55566 8.94809C3.55566 9.23403 3.73979 9.49233 4.02684 9.61021L12.8714 13.2482C12.9775 13.2919 13.0909 13.3137 13.2042 13.3137C13.3176 13.3137 13.431 13.2919 13.5371 13.2482L22.3816 9.61021C22.6687 9.49233 22.8528 9.23403 22.8528 8.94809C22.8528 8.66214 22.6687 8.40384 22.3816 8.28597Z" fill="#ADB5BD"/>
</svg>
