<svg width="14" height="19" viewBox="0 0 14 19" fill="none" xmlns="http://www.w3.org/2000/svg">
<path fill-rule="evenodd" clip-rule="evenodd" d="M3.7576 7.21902C4.74342 6.69872 5.88489 6.39597 7.10504 6.39597C10.7964 6.39597 13.7999 9.12604 13.7999 12.4814C13.7999 15.8367 10.7964 18.5668 7.10504 18.5668C3.41365 18.5668 0.410156 15.8367 0.410156 12.4814C0.410156 10.9441 1.04533 9.54213 2.08388 8.46957V4.87461C2.08388 2.35753 4.33587 0.310547 7.10504 0.310547C9.8742 0.310547 12.1262 2.35753 12.1262 4.87461H10.4525C10.4525 3.19656 8.95115 1.8319 7.10504 1.8319C5.25892 1.8319 3.7576 3.19656 3.7576 4.87461V7.21902ZM7.94189 15.5241V13.8628C8.91349 13.5479 9.61561 12.7111 9.61561 11.7207C9.61561 10.4625 8.4892 9.43867 7.10503 9.43867C5.72087 9.43867 4.59446 10.4625 4.59446 11.7207C4.59446 12.7111 5.29658 13.5479 6.26818 13.8628V15.5241H7.94189Z" fill="#ADB5BD"/>
</svg>
