<svg width="13" height="21" viewBox="0 0 13 21" fill="none" xmlns="http://www.w3.org/2000/svg">
<path fill-rule="evenodd" clip-rule="evenodd" d="M11.2273 0H1.77273C0.795364 0 0 1.17775 0 2.625V18.375C0 19.8223 0.795364 21 1.77273 21H11.2273C12.2046 21 13 19.8223 13 18.375V2.625C13 1.17775 12.2046 0 11.2273 0ZM6.49993 19.2504C6.17375 19.2504 5.90902 18.8584 5.90902 18.3754C5.90902 17.8924 6.17375 17.5004 6.49993 17.5004C6.82611 17.5004 7.09084 17.8924 7.09084 18.3754C7.09084 18.8584 6.82611 19.2504 6.49993 19.2504ZM11.2272 15.7501C11.5533 15.7501 11.8181 15.3581 11.8181 14.8751V3.50014C11.8181 3.01714 11.5533 2.62514 11.2272 2.62514H1.77261C1.44643 2.62514 1.18171 3.01714 1.18171 3.50014V14.8751C1.18171 15.3581 1.44643 15.7501 1.77261 15.7501H11.2272Z" fill="#ADB5BD"/>
</svg>
