          <svg width="18" height="18" viewBox="0 0 18 18" fill="none" xmlns="http://www.w3.org/2000/svg">
<path fill-rule="evenodd" clip-rule="evenodd" d="M8.80038 0.466797C4.16849 0.466797 0.400391 4.2648 0.400391 8.93346C0.400391 13.6021 4.16849 17.4001 8.80038 17.4001C13.4323 17.4001 17.2004 13.6021 17.2004 8.93346C17.2004 4.2648 13.4323 0.466797 8.80038 0.466797ZM6.00039 7.52235C6.00039 5.96378 7.29119 4.70013 8.80039 4.70013C10.3096 4.70013 11.6004 5.96378 11.6004 7.52235V8.22791C11.6004 9.78648 10.3096 11.0501 8.80039 11.0501C7.29119 11.0501 6.00039 9.78648 6.00039 8.22791V7.52235ZM4.31969 14.3479C5.53489 15.371 7.09729 15.989 8.80038 15.989C10.5035 15.989 12.0659 15.371 13.2811 14.3479C12.6938 13.231 11.5423 12.4612 10.2004 12.4612H7.40039C6.05849 12.4612 4.90699 13.231 4.31969 14.3479Z" fill="white"/>
</svg>